<svg xmlns="http://www.w3.org/2000/svg" viewBox="0 0 784 491"><g id="b322f197-5c8b-4714-9b57-672eb2dcafed" data-name="Ebene 2"><g id="aee22ad9-b3a0-404a-894f-c4300b16e3fc" data-name="Maße"><rect id="a69ad82b-22c0-4a74-9295-9ee1ea6b7834" data-name="Rechteck 217" width="784" height="491" rx="25" style="fill:#f18b74"/><g id="e5664888-f2f5-4f4d-87b6-ec80f54fe7d2" data-name="Bildmaterial 6"><path d="M645.6,436.25c.93-13.21-5-14.92,2-21.29s12.86-.66,18,.19S687.44,413,689.86,424s-10.4,14.24-16,19.58S667,462,654.76,459.33,645.6,436.25,645.6,436.25Z" style="fill:#fff"/><path d="M636.76,449.26A10.89,10.89,0,0,0,635.28,431a19.08,19.08,0,0,0-9.16-2.25c-7.8.15-14.55,1.17-2.8,16.34C628.83,452.16,633.43,451.72,636.76,449.26Z" style="fill:#fff"/><path d="M680.79,407.61a11,11,0,0,1-17.74-5.32,19,19,0,0,1-.28-9.5c1.78-7.66,4.2-14.1,16.69.68C685.32,400.4,683.92,404.84,680.79,407.61Z" style="fill:#fff"/><path d="M639.18,419.45c3.76-5.27-1.13-14.7-9.57-17.45s-12.24-8.58-16.28-4.87c-5.42,5,.66,17,8.26,23.06S636.74,422.88,639.18,419.45Z" style="fill:#fff"/><path d="M651.71,408c-5.57,3.29-14.55-2.4-16.55-11s-7.5-12.93-3.45-16.63c5.43-5,16.87,2.12,22.26,10.21S655.34,405.82,651.71,408Z" style="fill:#fff"/></g><g id="faf2b86f-cb21-403c-ba0b-643c0f8f509f" data-name="Bildmaterial 6"><path d="M594.48,250.42c-1.18-13.19-7.29-13.94-1.45-21.33s12.59-2.71,17.8-2.69,21.24-5.6,25.4,4.86-8,15.73-12.71,21.9-3.8,19.3-16.3,18.58S594.48,250.42,594.48,250.42Z" style="fill:#fff"/><path d="M587.84,264.67a10.89,10.89,0,0,0-4.39-17.84,19,19,0,0,0-9.4-.75c-7.68,1.39-14.17,3.47-.15,16.58C580.47,268.8,584.94,267.64,587.84,264.67Z" style="fill:#fff"/><path d="M624.65,216.53a11,11,0,0,1-18.37-2.42,19.1,19.1,0,0,1-1.79-9.33c.54-7.85,1.9-14.6,16.59-2C628,208.68,627.3,213.29,624.65,216.53Z" style="fill:#fff"/><path d="M585.47,234.86c2.87-5.81-3.47-14.33-12.24-15.7s-13.45-6.51-16.85-2.2c-4.56,5.78,3.37,16.66,11.83,21.44S583.6,238.63,585.47,234.86Z" style="fill:#fff"/><path d="M596,221.51c-5,4.14-14.74,0-18.11-8.25s-9.46-11.57-6.06-15.88c4.57-5.77,17-.6,23.61,6.53S599.24,218.82,596,221.51Z" style="fill:#fff"/></g><g id="fc5b27a5-4567-43a6-9758-25fbee86f5ed" data-name="Bildmaterial 6"><path d="M302,279.88c-.81-13.22-6.89-14.14-.85-21.36s12.66-2.36,17.87-2.18,21.39-5,25.25,5.57-8.44,15.49-13.32,21.53-4.34,19.18-16.82,18.11S302,279.88,302,279.88Z" style="fill:#fff"/><path d="M294.92,293.94A10.89,10.89,0,0,0,291,276a18.9,18.9,0,0,0-9.37-1c-7.71,1.17-14.27,3.07-.62,16.56C287.44,297.86,291.94,296.82,294.92,293.94Z" style="fill:#fff"/><path d="M333.07,246.85a11,11,0,0,1-18.29-2.93,19.1,19.1,0,0,1-1.53-9.38c.77-7.83,2.32-14.54,16.65-1.53C336.61,239.11,335.81,243.7,333.07,246.85Z" style="fill:#fff"/><path d="M293.39,264.07c3-5.72-3.06-14.42-11.79-16s-13.26-6.9-16.78-2.68c-4.72,5.65,2.9,16.75,11.22,21.77S291.42,267.79,293.39,264.07Z" style="fill:#fff"/><path d="M304.3,251c-5.1,4-14.74-.46-17.87-8.76s-9.14-11.84-5.61-16c4.72-5.65,17-.12,23.41,7.19S307.61,248.43,304.3,251Z" style="fill:#fff"/></g><g id="b218786c-a4f4-4ec5-911b-2f80b206bf61" data-name="Bildmaterial 6"><path d="M137.23,93.46c-3.1-12.87-9.25-12.72-4.56-20.89s12.06-4.52,17.21-5.26,20.2-8.65,25.84,1.09-5.61,16.72-9.37,23.52-.93,19.65-13.4,20.77S137.23,93.46,137.23,93.46Z" style="fill:#fff"/><path d="M132.74,108.53a10.88,10.88,0,0,0-7-17,18.87,18.87,0,0,0-9.4.63c-7.4,2.5-13.52,5.51,2.27,16.42C126.06,113.69,130.31,111.89,132.74,108.53Z" style="fill:#fff"/><path d="M162.11,55.52a11,11,0,0,1-18.52.29,19.18,19.18,0,0,1-3.14-9c-.61-7.84-.26-14.71,16.12-4.4C164.25,47.27,164.26,51.93,162.11,55.52Z" style="fill:#fff"/><path d="M126,79.39c2-6.16-5.53-13.67-14.41-13.74s-14.26-4.48-17,.28c-3.66,6.39,5.77,16,14.85,19.49S124.74,83.39,126,79.39Z" style="fill:#fff"/><path d="M134.5,64.64c-4.32,4.83-14.59,2.12-19.12-5.51s-11-10.06-8.32-14.82c3.67-6.38,16.73-3.08,24.31,3S137.31,61.51,134.5,64.64Z" style="fill:#fff"/></g></g></g></svg>