<svg xmlns="http://www.w3.org/2000/svg" viewBox="0 0 784 491"><g id="a88297ac-3c96-4aa0-bcd1-5e99e5508c51" data-name="Ebene 2"><g id="a5f63438-4ced-482f-85c3-e582362479b7" data-name="Maße"><rect width="784" height="491" style="fill:#f18b74"/><g id="e80f729d-0c20-4c7b-ba98-28a6846e89c5" data-name="Bildmaterial 6"><path d="M645.6,436c.93-13.21-5-14.92,2-21.29s12.86-.66,18,.2,21.87-2.14,24.29,8.85-10.4,14.24-16,19.58S667,461.74,654.76,459,645.6,436,645.6,436Z" style="fill:#fff"/><path d="M636.76,449a10.89,10.89,0,0,0-1.48-18.31,19,19,0,0,0-9.16-2.24c-7.8.14-14.55,1.16-2.8,16.33C628.83,451.86,633.43,451.42,636.76,449Z" style="fill:#fff"/><path d="M680.79,407.31A11,11,0,0,1,663.05,402a19,19,0,0,1-.28-9.5c1.78-7.66,4.2-14.1,16.69.68C685.32,400.1,683.92,404.54,680.79,407.31Z" style="fill:#fff"/><path d="M639.18,419.15c3.76-5.27-1.13-14.7-9.57-17.45s-12.24-8.58-16.28-4.87c-5.42,5,.66,17,8.26,23.06S636.74,422.58,639.18,419.15Z" style="fill:#fff"/><path d="M651.71,407.66c-5.57,3.29-14.55-2.39-16.55-11s-7.5-12.94-3.45-16.64c5.43-5,16.87,2.12,22.26,10.21S655.34,405.52,651.71,407.66Z" style="fill:#fff"/></g><g id="f5c1a729-1711-4627-8ac2-821d32076618" data-name="Bildmaterial 6"><path d="M594.48,250.12c-1.18-13.19-7.29-13.94-1.45-21.33s12.59-2.71,17.8-2.68,21.24-5.61,25.4,4.86-8,15.72-12.71,21.89-3.8,19.3-16.3,18.58S594.48,250.12,594.48,250.12Z" style="fill:#fff"/><path d="M587.84,264.37a10.89,10.89,0,0,0-4.39-17.84,19,19,0,0,0-9.4-.75c-7.68,1.39-14.17,3.47-.15,16.58C580.47,268.5,584.94,267.34,587.84,264.37Z" style="fill:#fff"/><path d="M624.65,216.23a11,11,0,0,1-18.37-2.42,19.1,19.1,0,0,1-1.79-9.33c.54-7.85,1.9-14.6,16.59-2C628,208.38,627.3,213,624.65,216.23Z" style="fill:#fff"/><path d="M585.47,234.56c2.87-5.8-3.47-14.33-12.24-15.7s-13.45-6.51-16.85-2.2c-4.56,5.78,3.37,16.67,11.83,21.44S583.6,238.33,585.47,234.56Z" style="fill:#fff"/><path d="M596,221.21c-5,4.14-14.74,0-18.11-8.25s-9.46-11.57-6.06-15.88c4.57-5.77,17-.59,23.61,6.53S599.24,218.53,596,221.21Z" style="fill:#fff"/></g><g id="bcf72366-f97b-4919-bf0c-6ed9a6b9398f" data-name="Bildmaterial 6"><path d="M302,279.58c-.81-13.21-6.89-14.14-.85-21.36S313.77,255.87,319,256s21.39-5,25.25,5.57-8.44,15.49-13.32,21.53-4.34,19.18-16.82,18.11S302,279.58,302,279.58Z" style="fill:#fff"/><path d="M294.92,293.64a10.89,10.89,0,0,0-3.89-18,19,19,0,0,0-9.37-1c-7.71,1.17-14.27,3.07-.62,16.56C287.44,297.56,291.94,296.52,294.92,293.64Z" style="fill:#fff"/><path d="M333.07,246.55a11,11,0,0,1-18.29-2.93,19.08,19.08,0,0,1-1.53-9.38c.77-7.83,2.32-14.53,16.65-1.53C336.61,238.81,335.81,243.4,333.07,246.55Z" style="fill:#fff"/><path d="M293.39,263.78c3-5.73-3.06-14.43-11.79-16s-13.26-6.89-16.78-2.68c-4.72,5.65,2.9,16.76,11.22,21.77S291.42,267.49,293.39,263.78Z" style="fill:#fff"/><path d="M304.3,250.73c-5.1,4-14.74-.45-17.87-8.76s-9.14-11.83-5.61-16c4.72-5.65,17-.12,23.41,7.19S307.61,248.13,304.3,250.73Z" style="fill:#fff"/></g><g id="a157508d-2e2e-4d63-b762-572245f42d94" data-name="Bildmaterial 6"><path d="M137.23,93.16c-3.1-12.87-9.25-12.72-4.56-20.89s12.06-4.52,17.21-5.26,20.2-8.65,25.84,1.09-5.61,16.73-9.37,23.52-.93,19.65-13.4,20.77S137.23,93.16,137.23,93.16Z" style="fill:#fff"/><path d="M132.74,108.23a10.88,10.88,0,0,0-7-17,18.87,18.87,0,0,0-9.4.63c-7.4,2.5-13.52,5.51,2.27,16.42C126.06,113.39,130.31,111.59,132.74,108.23Z" style="fill:#fff"/><path d="M162.11,55.22a11,11,0,0,1-18.52.29,19.15,19.15,0,0,1-3.14-9c-.61-7.85-.26-14.72,16.12-4.41C164.25,47,164.26,51.63,162.11,55.22Z" style="fill:#fff"/><path d="M126,79.09c2-6.16-5.53-13.67-14.41-13.74s-14.26-4.47-17,.29c-3.66,6.38,5.77,16,14.85,19.48S124.74,83.09,126,79.09Z" style="fill:#fff"/><path d="M134.5,64.35c-4.32,4.82-14.59,2.11-19.12-5.52s-11-10.06-8.32-14.82c3.67-6.38,16.73-3.08,24.31,3S137.31,61.21,134.5,64.35Z" style="fill:#fff"/></g></g></g></svg>