<svg xmlns="http://www.w3.org/2000/svg" viewBox="0 0 700 700"><g id="f11fe9f4-275c-4fc0-9496-365f88bbbfa8" data-name="Ebene 2"><g id="eefd4ce9-dbe4-49c3-be71-58aa262c2511" data-name="Maße"><rect width="700" height="700" style="fill:#f18b74"/><g id="b1cce3cc-d1e4-440d-b0dd-02bad228f2ef" data-name="Bildmaterial 6"><path d="M478,631.22c3.35-12.81-2.15-15.58,5.85-20.56s12.76,1.71,17.65,3.5,21.89,1.92,22.26,13.17-12.85,12.09-19.37,16.3-10.11,16.87-21.63,12S478,631.22,478,631.22Z" style="fill:#fff"/><path d="M466.89,642.38a10.88,10.88,0,0,0,1.91-18.27,19,19,0,0,0-8.59-3.88c-7.7-1.29-14.51-1.54-5.76,15.54C458.56,643.78,463.16,644.2,466.89,642.38Z" style="fill:#fff"/><path d="M517.82,609.54a11,11,0,0,1-16.46-8.49,19.16,19.16,0,0,1,1.47-9.39c3.17-7.2,6.73-13.08,16.29,3.74C523.6,603.29,521.41,607.4,517.82,609.54Z" style="fill:#fff"/><path d="M474.75,613.53c4.67-4.49,1.59-14.66-6.2-18.91s-10.45-10.68-15.11-7.78c-6.24,3.9-2.47,16.83,3.88,24.18S471.72,616.45,474.75,613.53Z" style="fill:#fff"/><path d="M489.18,604.54c-6.09,2.21-13.86-5-14.25-13.9s-5-14.09-.32-17c6.25-3.89,16.19,5.19,20,14.13S493.14,603.1,489.18,604.54Z" style="fill:#fff"/></g><g id="e5343ddd-94ae-4e9e-9aa4-5e69474ea850" data-name="Bildmaterial 6"><path d="M534,438c2.4-13-3.28-15.38,4.32-20.93s12.86.77,17.87,2.19,22,.31,23.16,11.51-11.93,13-18.12,17.67-8.85,17.57-20.7,13.52S534,438,534,438Z" style="fill:#fff"/><path d="M523.73,449.89a10.88,10.88,0,0,0,.56-18.36,19,19,0,0,0-8.85-3.25c-7.77-.72-14.59-.46-4.6,15.93C515.52,451.89,520.14,452,523.73,449.89Z" style="fill:#fff"/><path d="M572.12,413.41a11,11,0,0,1-17-7.26,19,19,0,0,1,.78-9.47c2.63-7.42,5.75-13.55,16.52,2.53C577.42,406.75,575.54,411,572.12,413.41Z" style="fill:#fff"/><path d="M529.45,420.54c4.33-4.82.52-14.73-7.57-18.41s-11.2-9.89-15.63-6.65c-5.95,4.35-1.24,17,5.63,23.84S526.64,423.67,529.45,420.54Z" style="fill:#fff"/><path d="M543.19,410.52c-5.91,2.65-14.2-4-15.23-12.82s-6-13.69-1.57-16.92c6-4.34,16.53,4,21,12.63S547,408.8,543.19,410.52Z" style="fill:#fff"/></g><g id="af0deb1d-73ad-44a4-8878-df62f5895849" data-name="Bildmaterial 6"><path d="M246.61,411.28c2.76-12.95-2.85-15.47,4.91-20.8s12.83,1.13,17.8,2.7,21.95.93,22.83,12.15-12.3,12.65-18.62,17.16-9.34,17.31-21.06,12.92S246.61,411.28,246.61,411.28Z" style="fill:#fff"/><path d="M236,422.93a10.88,10.88,0,0,0,1.08-18.34,18.93,18.93,0,0,0-8.75-3.49c-7.75-1-14.57-.88-5.05,15.78C227.78,424.7,232.4,424.91,236,422.93Z" style="fill:#fff"/><path d="M285.44,387.83a11,11,0,0,1-16.82-7.75,19.11,19.11,0,0,1,1-9.44c2.84-7.34,6.14-13.38,16.44,3C290.94,381.32,288.93,385.52,285.44,387.83Z" style="fill:#fff"/><path d="M242.59,393.75c4.46-4.69.94-14.71-7-18.61s-10.92-10.2-15.44-7.09c-6.07,4.17-1.72,16.92,5,24S239.7,396.8,242.59,393.75Z" style="fill:#fff"/><path d="M256.6,384.12c-6,2.48-14.07-4.4-14.85-13.24s-5.62-13.85-1.1-17c6.07-4.17,16.42,4.46,20.62,13.22S260.49,382.51,256.6,384.12Z" style="fill:#fff"/></g><g id="bbec3f9c-3360-449b-956e-49c5e5f31097" data-name="Bildmaterial 6"><path d="M307.35,186.54c4-12.61-1.3-15.68,6.95-20.22s12.66,2.4,17.44,4.45,21.76,3.09,21.51,14.35S339.77,196.49,333,200.35s-11,16.3-22.24,10.78S307.35,186.54,307.35,186.54Z" style="fill:#fff"/><path d="M295.69,197.08a10.88,10.88,0,0,0,2.88-18.14,18.92,18.92,0,0,0-8.36-4.34c-7.61-1.7-14.41-2.32-6.59,15.21C287.29,198,291.86,198.69,295.69,197.08Z" style="fill:#fff"/><path d="M348.32,167a11,11,0,0,1-16-9.37,19.15,19.15,0,0,1,2-9.29c3.55-7,7.43-12.71,16.07,4.61C354.43,161.1,352,165.09,348.32,167Z" style="fill:#fff"/><path d="M305.09,168.7c4.9-4.23,2.38-14.55-5.17-19.22s-9.86-11.23-14.67-8.59c-6.44,3.56-3.37,16.67,2.57,24.36S301.91,171.45,305.09,168.7Z" style="fill:#fff"/><path d="M320,160.5c-6.2,1.88-13.57-5.77-13.48-14.65s-4.22-14.34.59-17c6.45-3.55,15.89,6.06,19.21,15.19S324,159.28,320,160.5Z" style="fill:#fff"/></g><g id="b3d0b2f0-23b9-4330-a70c-4fafdcc51d00" data-name="Bildmaterial 6"><path d="M69.16,125.54c6.06-11.78,1.3-15.68,10.19-18.8s12.09,4.45,16.47,7.26,21,6.64,18.85,17.7-15.17,9-22.45,11.69-13.54,14.27-23.72,7S69.16,125.54,69.16,125.54Z" style="fill:#fff"/><path d="M55.92,134a10.89,10.89,0,0,0,5.84-17.42,18.88,18.88,0,0,0-7.53-5.66c-7.23-2.94-13.84-4.66-9,13.91C47.49,133.56,51.88,135,55.92,134Z" style="fill:#fff"/><path d="M112.78,113.06a11,11,0,0,1-14.21-11.88,19.05,19.05,0,0,1,3.48-8.84c4.66-6.34,9.41-11.31,15.08,7.2C119.79,108.21,116.75,111.75,112.78,113.06Z" style="fill:#fff"/><path d="M69.87,107.57c5.54-3.37,4.75-14-1.93-19.81s-7.87-12.7-13-10.88c-6.94,2.44-6.08,15.88-1.48,24.44S66.28,109.76,69.87,107.57Z" style="fill:#fff"/><path d="M85.92,101.94C79.49,102.77,73.48,94,75,85.27s-1.8-14.84,3.38-16.65c7-2.44,14.67,8.59,16.44,18.14S90.09,101.4,85.92,101.94Z" style="fill:#fff"/></g></g></g></svg>