<svg xmlns="http://www.w3.org/2000/svg" viewBox="0 0 113.93 113.92"><g id="f5f951dc-8b35-4c0c-a7d9-aa07c2d9330c" data-name="Ebene 2"><g id="a2dee415-a63f-401b-8df6-891b48a2a53c" data-name="Ebene 1"><path d="M111.78,51.89,62,2.15a7.32,7.32,0,0,0-10.37,0L41.33,12.48l13.1,13.1a8.72,8.72,0,0,1,11,11.11L78.1,49.32a8.71,8.71,0,1,1-5.23,4.92L61.09,42.46v31A8.91,8.91,0,0,1,63.4,75.1a8.73,8.73,0,1,1-12.35,0,8.88,8.88,0,0,1,2.86-1.9V41.92a8.75,8.75,0,0,1-4.74-11.45L36.26,17.55,2.15,51.66A7.33,7.33,0,0,0,2.15,62l49.74,49.73a7.33,7.33,0,0,0,10.38,0l49.51-49.5a7.35,7.35,0,0,0,0-10.38" style="fill:#f05133"/></g></g></svg>