<svg xmlns="http://www.w3.org/2000/svg" viewBox="0 0 500 700"><g id="fc02d063-7263-4771-b5d6-cc3bfacbea4b" data-name="Ebene 2"><g id="e7630aa3-daec-4a6c-8497-c83c56eccbb3" data-name="Maße"><rect id="aa3d3689-b185-4a64-878b-0db19236aec7" data-name="Rechteck 248" width="500" height="700" style="fill:#f18b74"/><g id="bbee2958-36d7-41f9-9954-6bc6e1580735" data-name="Bildmaterial 6"><path d="M42.21,176.82c5.24-10.58.95-14,8.83-16.9s10.84,3.8,14.79,6.25,18.78,5.63,17.06,15.53S69.48,189.93,63,192.43,51.14,205.35,42,199,42.21,176.82,42.21,176.82Z" style="fill:#fff"/><path d="M30.52,184.57a9.72,9.72,0,0,0,5-15.62,17,17,0,0,0-6.8-4.94c-6.49-2.52-12.4-4-7.84,12.53C23,184.28,26.93,185.48,30.52,184.57Z" style="fill:#fff"/><path d="M81,165.09A9.79,9.79,0,0,1,68.11,154.7a16.92,16.92,0,0,1,3-7.94c4.07-5.72,8.24-10.21,13.55,6.21C87.13,160.67,84.47,163.87,81,165.09Z" style="fill:#fff"/><path d="M42.6,160.79c4.89-3.08,4-12.52-2-17.64s-7.19-11.23-11.78-9.53c-6.17,2.27-5.21,14.25-1,21.82S39.43,162.79,42.6,160.79Z" style="fill:#fff"/><path d="M56.83,155.54c-5.71.83-11.2-6.9-9.93-14.72s-1.81-13.21,2.79-14.9c6.16-2.26,13.21,7.47,14.92,16S60.55,155,56.83,155.54Z" style="fill:#fff"/></g><g id="bb9996ec-e104-44b2-b7b4-f7c1d936fbe9" data-name="Bildmaterial 6"><path d="M276.93,229.19c5.88-10.25,1.81-13.92,9.85-16.33s10.59,4.46,14.38,7.14,18.4,6.78,16.07,16.55-13.89,7.4-20.48,9.5-12.66,12.15-21.42,5.23S276.93,229.19,276.93,229.19Z" style="fill:#fff"/><path d="M264.78,236.2a9.71,9.71,0,0,0,5.92-15.28,16.88,16.88,0,0,0-6.48-5.36c-6.32-2.91-12.13-4.71-8.59,12C257.29,235.45,261.15,236.89,264.78,236.2Z" style="fill:#fff"/><path d="M316.32,219.86a9.79,9.79,0,0,1-12.18-11.17A16.85,16.85,0,0,1,307.6,201c4.41-5.46,8.86-9.69,13.14,7C322.76,215.83,319.91,218.85,316.32,219.86Z" style="fill:#fff"/><path d="M278.3,213.21c5.07-2.78,4.81-12.25-.9-17.74s-6.5-11.64-11.19-10.23c-6.29,1.89-6.07,13.9-2.32,21.72S275,215,278.3,213.21Z" style="fill:#fff"/><path d="M292.83,208.84c-5.76.48-10.75-7.57-9-15.3s-1-13.29,3.7-14.7c6.29-1.88,12.72,8.26,13.91,16.85S296.57,208.53,292.83,208.84Z" style="fill:#fff"/></g><g id="aef8be9f-fc6e-4909-9a2d-941cd520d29c" data-name="Bildmaterial 6"><path d="M236.94,463.75c6.56-9.82,2.74-13.76,10.93-15.63s10.27,5.17,13.87,8.11,17.89,8,14.91,17.6-14.36,6.43-21.08,8.08-13.45,11.27-21.73,3.77S236.94,463.75,236.94,463.75Z" style="fill:#fff"/><path d="M224.34,469.92a9.71,9.71,0,0,0,6.94-14.85,16.91,16.91,0,0,0-6.1-5.78c-6.11-3.33-11.79-5.53-9.39,11.42C216.91,468.66,220.67,470.36,224.34,469.92Z" style="fill:#fff"/><path d="M276.86,457.11a9.79,9.79,0,0,1-11.39-12,17,17,0,0,1,4-7.48c4.77-5.15,9.49-9.07,12.64,7.91C283.56,453.52,280.52,456.35,276.86,457.11Z" style="fill:#fff"/><path d="M239.39,447.89c5.25-2.42,5.62-11.89.3-17.75s-5.69-12.06-10.47-11c-6.4,1.47-7,13.46-3.79,21.52S236,449.47,239.39,447.89Z" style="fill:#fff"/><path d="M254.18,444.53c-5.77.08-10.21-8.29-8-15.88s-.09-13.33,4.68-14.41c6.41-1.46,12.14,9.1,12.74,17.75S257.93,444.47,254.18,444.53Z" style="fill:#fff"/></g><g id="b0a0d979-150b-4ba7-9f36-16ccfbeb4b60" data-name="Bildmaterial 6"><path d="M423.91,628.82c7-9.49,3.42-13.61,11.7-15.06s10,5.67,13.44,8.78,17.47,8.9,14,18.33-14.66,5.71-21.46,7-14,10.58-21.89,2.68S423.91,628.82,423.91,628.82Z" style="fill:#fff"/><path d="M411,634.35a9.71,9.71,0,0,0,7.67-14.48,16.9,16.9,0,0,0-5.8-6.08c-5.94-3.63-11.5-6.11-9.95,10.94C403.66,632.72,407.33,634.6,411,634.35Z" style="fill:#fff"/><path d="M464.11,624.18a9.79,9.79,0,0,1-10.78-12.52,17.05,17.05,0,0,1,4.35-7.27c5-4.91,9.94-8.59,12.23,8.52C471,620.93,467.8,623.61,464.11,624.18Z" style="fill:#fff"/><path d="M427.15,613.1c5.36-2.15,6.21-11.59,1.18-17.71s-5.08-12.33-9.9-11.48c-6.47,1.14-7.66,13.09-4.87,21.3S423.67,614.51,427.15,613.1Z" style="fill:#fff"/><path d="M442.09,610.48c-5.78-.2-9.79-8.78-7.15-16.25s.58-13.32,5.4-14.17c6.47-1.13,11.66,9.7,11.83,18.37S445.84,610.61,442.09,610.48Z" style="fill:#fff"/></g></g></g></svg>